<svg xmlns="http://www.w3.org/2000/svg" viewBox="0 0 616 353" role="img" aria-labelledby="title desc">
  <title id="title">8 Ball Pool key art</title>
  <desc id="desc">A stylized green pool table with cue ball, eight ball, stripes, solids, and a clean aiming line.</desc>
  <defs>
    <linearGradient id="felt" x1="0" x2="1" y1="0" y2="1">
      <stop offset="0" stop-color="#087f5b"/>
      <stop offset="1" stop-color="#034732"/>
    </linearGradient>
    <filter id="shadow" x="-20%" y="-20%" width="140%" height="140%">
      <feDropShadow dx="0" dy="10" stdDeviation="8" flood-color="#001b13" flood-opacity=".45"/>
    </filter>
  </defs>
  <rect width="616" height="353" fill="#102820"/>
  <rect x="42" y="38" width="532" height="277" rx="28" fill="#6f4e37"/>
  <rect x="72" y="68" width="472" height="217" rx="18" fill="url(#felt)"/>
  <g fill="#081c15">
    <circle cx="82" cy="78" r="18"/>
    <circle cx="534" cy="78" r="18"/>
    <circle cx="82" cy="275" r="18"/>
    <circle cx="534" cy="275" r="18"/>
    <circle cx="308" cy="68" r="15"/>
    <circle cx="308" cy="285" r="15"/>
  </g>
  <path d="M143 236l301-119" stroke="#f8f9fa" stroke-width="5" stroke-linecap="round" opacity=".82"/>
  <path d="M126 243l-72 28" stroke="#d6a461" stroke-width="11" stroke-linecap="round"/>
  <g filter="url(#shadow)">
    <circle cx="152" cy="231" r="23" fill="#f8f9fa"/>
    <circle cx="444" cy="117" r="25" fill="#111"/>
    <circle cx="444" cy="117" r="12" fill="#fff"/>
    <text x="444" y="123" text-anchor="middle" font-family="Arial, sans-serif" font-size="17" font-weight="700" fill="#111">8</text>
    <circle cx="386" cy="182" r="20" fill="#e63946"/>
    <circle cx="487" cy="201" r="20" fill="#f4a261"/>
    <circle cx="337" cy="129" r="20" fill="#457b9d"/>
    <circle cx="414" cy="239" r="20" fill="#fff"/>
    <path d="M394 228a20 20 0 0 0 40 0" fill="#2a9d8f"/>
  </g>
</svg>
